<mxfile host="app.diagrams.net" modified="2024-05-22T18:28:54.359Z" agent="Mozilla/5.0 (Windows NT 10.0; Win64; x64; rv:126.0) Gecko/20100101 Firefox/126.0" version="24.2.1" etag="BsVSuGb__6_V4ZDpcFDn" type="github">
  <diagram name="Pagina-1" id="HS-y-BWNbbjssM_ixu4Y">
    <mxGraphModel>
      <root>
        <mxCell id="0" />
        <mxCell id="1" parent="0" />
      </root>
    </mxGraphModel>
  </diagram>
</mxfile>
